<?xml version="1.0" standalone="no"?>
<!DOCTYPE svg PUBLIC "-//W3C//DTD SVG 20010904//EN"
 "http://www.w3.org/TR/2001/REC-SVG-20010904/DTD/svg10.dtd">
<svg version="1.0" xmlns="http://www.w3.org/2000/svg"
 width="187.000000pt" height="375.000000pt" viewBox="0 0 187.000000 375.000000"
 preserveAspectRatio="xMidYMid meet">

<g transform="translate(0.000000,375.000000) scale(0.100000,-0.100000)"
fill="#000000" stroke="none">
<path d="M1345 3739 c-114 -11 -257 -29 -295 -38 -146 -37 -211 -57 -250 -77
-25 -13 -67 -31 -95 -40 -145 -47 -300 -149 -445 -291 -30 -29 -70 -68 -88
-86 -48 -47 -115 -144 -140 -204 -32 -75 -31 -196 2 -261 85 -167 357 -253
676 -211 127 16 267 22 273 12 3 -5 -18 -56 -48 -114 -31 -61 -60 -135 -70
-179 -9 -41 -22 -88 -27 -105 -16 -47 -18 -251 -3 -325 22 -103 44 -195 54
-221 8 -21 2 -31 -54 -84 -149 -143 -230 -255 -279 -382 -52 -137 -53 -189
-10 -321 34 -103 69 -148 168 -214 113 -75 202 -110 314 -123 34 -4 64 -10 66
-14 7 -11 -23 -150 -46 -216 -24 -66 -74 -142 -125 -192 -37 -36 -40 -43 -18
-43 8 0 56 42 107 93 69 68 102 110 126 160 17 37 32 71 32 76 0 5 8 26 17 47
9 22 18 55 19 74 2 25 12 43 36 64 83 73 184 175 217 221 62 84 76 133 76 270
0 104 -3 127 -23 170 -30 65 -75 112 -137 141 -41 20 -66 24 -142 24 l-91 0
-31 103 c-18 56 -38 117 -46 135 -8 18 -15 39 -15 47 0 14 67 68 236 189 114
83 310 273 346 336 14 25 32 69 39 97 11 46 11 60 -5 109 -15 46 -31 70 -90
128 -95 95 -173 133 -341 168 -80 17 -77 15 -64 40 14 27 95 124 161 192 46
47 58 66 39 66 -17 0 -57 -39 -166 -159 l-109 -121 -76 0 c-41 -1 -136 -6
-210 -13 -207 -18 -345 -2 -475 58 -50 22 -135 87 -145 109 -3 6 -14 24 -24
39 -30 44 -28 186 3 252 41 86 201 235 280 260 13 4 48 19 79 35 32 15 91 39
132 55 41 15 89 33 107 41 17 8 36 14 43 14 7 0 42 8 78 19 268 76 647 84 782
18 50 -24 72 -65 54 -95 -20 -32 -276 -192 -308 -192 -8 0 -133 -57 -178 -80
-20 -11 -42 -20 -48 -20 -6 0 -48 -18 -92 -40 -45 -22 -86 -40 -91 -40 -7 0
-32 -10 -122 -50 -11 -5 -30 -11 -42 -15 -28 -8 -136 -116 -125 -127 11 -11
187 53 292 107 25 13 68 33 95 45 28 12 59 25 70 30 11 5 49 21 85 36 36 14
70 30 75 34 6 5 46 27 90 49 173 88 397 284 428 374 12 36 13 54 6 71 -11 24
-74 61 -124 72 -49 11 -314 20 -390 13z m-153 -1227 c126 -34 286 -149 329
-237 35 -71 35 -112 -3 -182 -33 -62 -74 -100 -214 -198 -31 -22 -102 -75
-156 -117 -55 -43 -102 -78 -104 -78 -18 0 -58 148 -80 295 -20 136 -9 220 58
440 12 39 26 76 31 83 12 15 73 12 139 -6z m-270 -1019 c11 -29 42 -132 58
-193 8 -32 6 -38 -38 -88 -133 -154 -179 -233 -166 -290 8 -37 36 -102 43
-102 7 0 69 64 105 107 16 20 16 23 2 52 -20 39 -20 90 0 141 16 40 66 86 82
76 5 -3 17 -31 26 -63 9 -32 28 -92 41 -133 33 -101 47 -348 21 -369 -44 -37
-336 131 -381 220 -37 70 -59 164 -60 249 0 82 2 89 49 185 39 79 62 113 117
167 38 37 74 68 79 68 6 0 15 -12 22 -27z m339 -309 c6 -8 18 -14 25 -14 18 0
89 -97 102 -140 46 -149 6 -347 -80 -391 -70 -36 -68 -41 -69 174 -1 105 -1
195 -1 198 1 3 -6 30 -14 60 -29 103 -32 117 -22 127 12 12 44 4 59 -14z"/>
</g>
</svg>
